<svg width="274" height="273" xmlns="http://www.w3.org/2000/svg" xmlns:xlink="http://www.w3.org/1999/xlink" xml:space="preserve" overflow="hidden"><defs><clipPath id="clip0"><rect x="12" y="230" width="274" height="273"/></clipPath><radialGradient cx="5958840" cy="5958840" r="8427072" gradientUnits="userSpaceOnUse" spreadMethod="pad" id="fill1" gradientTransform="matrix(4.58144e-05 0 0 4.58144e-05 142.435 20.2481)"><stop offset="0" stop-color="#7757AE"/><stop offset="0.22" stop-color="#7757AE"/><stop offset="0.38694" stop-color="#5A60B8"/><stop offset="0.56" stop-color="#3C5BAD"/><stop offset="0.75462" stop-color="#2B75C3"/><stop offset="0.93" stop-color="#158FDA"/><stop offset="1" stop-color="#158FDA"/></radialGradient><radialGradient cx="3090820" cy="3090820" r="4371080" gradientUnits="userSpaceOnUse" spreadMethod="pad" id="fill2" gradientTransform="matrix(3.23956e-05 3.23956e-05 -3.23956e-05 3.23956e-05 278.851 -32.2391)"><stop offset="0" stop-color="#000000" stop-opacity="0.521569"/><stop offset="0.15" stop-color="#000000" stop-opacity="0.521569"/><stop offset="0.46" stop-color="#0275C9" stop-opacity="0"/><stop offset="1" stop-color="#0275C9" stop-opacity="0"/></radialGradient><radialGradient cx="902970" cy="902970" r="1276992" gradientUnits="userSpaceOnUse" spreadMethod="pad" id="fill3" gradientTransform="matrix(4.58144e-05 0 0 4.58144e-05 304.419 42.2417)"><stop offset="0" stop-color="#000000" stop-opacity="0.521569"/><stop offset="0.12" stop-color="#000000" stop-opacity="0.521569"/><stop offset="0.42" stop-color="#000000" stop-opacity="0.141176"/><stop offset="0.58" stop-color="#000000" stop-opacity="0"/><stop offset="1" stop-color="#000000" stop-opacity="0"/></radialGradient><linearGradient x1="166.61" y1="93.4728" x2="390.91" y2="317.773" gradientUnits="userSpaceOnUse" spreadMethod="reflect" id="fill4"><stop offset="0" stop-color="#4FEBFF"/><stop offset="0.26" stop-color="#4FEBFF"/><stop offset="0.42928" stop-color="#36C3F1"/><stop offset="0.58" stop-color="#28AFEB"/><stop offset="1" stop-color="#28AFEB"/></linearGradient><linearGradient x1="319.431" y1="49.5729" x2="372.146" y2="102.288" gradientUnits="userSpaceOnUse" spreadMethod="reflect" id="fill5"><stop offset="0" stop-color="#FAFBFC"/><stop offset="0.09434" stop-color="#FAFBFC"/><stop offset="0.26" stop-color="#FAFBFC"/><stop offset="0.76" stop-color="#D5DEE5"/><stop offset="1" stop-color="#D5DEE5"/></linearGradient><radialGradient cx="5097780" cy="-0.5" r="5725278" fy="-0.604408" gradientUnits="userSpaceOnUse" spreadMethod="pad" id="fill6" gradientTransform="matrix(4.58144e-05 0 0 4.58144e-05 181.884 173.854)"><stop offset="0" stop-color="#3BA6E7"/><stop offset="0.14" stop-color="#3BA6E7"/><stop offset="0.31" stop-color="#0C86D8"/><stop offset="0.78" stop-color="#057ED2"/><stop offset="1" stop-color="#057ED2"/></radialGradient><linearGradient x1="210.423" y1="145.315" x2="386.895" y2="321.787" gradientUnits="userSpaceOnUse" spreadMethod="reflect" id="fill7"><stop offset="0"/><stop offset="0.31"/><stop offset="0.47" stop-color="#0275C9" stop-opacity="0"/><stop offset="1" stop-color="#0275C9" stop-opacity="0"/></linearGradient><linearGradient x1="298.659" y1="173.854" x2="298.659" y2="293.248" gradientUnits="userSpaceOnUse" spreadMethod="reflect" id="fill8"><stop offset="0" stop-color="#000000" stop-opacity="0.239216"/><stop offset="0.14" stop-color="#0275C9" stop-opacity="0"/><stop offset="1" stop-color="#0275C9" stop-opacity="0"/></linearGradient><linearGradient x1="279.109" y1="223.951" x2="108.746" y2="53.5876" gradientUnits="userSpaceOnUse" spreadMethod="reflect" id="fill9"><stop offset="0" stop-color="#000000" stop-opacity="0.678431"/><stop offset="0.27" stop-color="#000000" stop-opacity="0.678431"/><stop offset="0.54" stop-color="#0275C9" stop-opacity="0"/><stop offset="1" stop-color="#0275C9" stop-opacity="0"/></linearGradient><linearGradient x1="280.157" y1="220.809" x2="448.076" y2="52.8894" gradientUnits="userSpaceOnUse" spreadMethod="reflect" id="fill10"><stop offset="0" stop-color="#000000" stop-opacity="0.678431"/><stop offset="0.25" stop-color="#000000" stop-opacity="0.678431"/><stop offset="0.54" stop-color="#0275C9" stop-opacity="0"/><stop offset="1" stop-color="#0275C9" stop-opacity="0"/></linearGradient></defs><g clip-path="url(#clip0)" transform="translate(-12 -230)"><path d="M142.435 56.1556C142.435 36.3244 158.511 20.2481 178.342 20.2481L379.526 20.2481C399.358 20.2481 415.435 36.3244 415.435 56.1556L415.435 257.341C415.435 277.172 399.358 293.248 379.526 293.248L178.342 293.248C158.511 293.248 142.435 277.172 142.435 257.341Z" fill="url(#fill1)" fill-rule="evenodd" transform="matrix(1.00238 0 0 1 -130.424 209.752)"/><path d="M211.794 34.8183 345.908 34.8183 378.981 67.8897 278.851 168.019 178.722 67.8897Z" fill="url(#fill2)" fill-rule="evenodd" transform="matrix(1.00238 0 0 1 -130.424 209.752)"/><path d="M304.419 83.6106C304.419 60.7631 322.941 42.2417 345.788 42.2417 368.637 42.2417 387.157 60.7631 387.157 83.6106 387.157 106.458 368.637 124.98 345.788 124.98 322.941 124.98 304.419 106.458 304.419 83.6106Z" fill="url(#fill3)" fill-rule="evenodd" transform="matrix(1.00238 0 0 1 -130.424 209.752)"/><path d="M279.63 117.997C290.095 117.997 300.56 121.985 308.544 129.96L402.308 223.637C410.338 231.514 415.7 237.12 415.424 257.341 415.424 277.172 399.327 293.248 379.473 293.248L178.04 293.248C158.185 293.248 142.088 277.172 142.088 257.341 141.92 236.584 149.427 231.453 152.654 227.796L250.716 129.96C258.7 121.985 269.165 117.997 279.63 117.997Z" fill="url(#fill4)" fill-rule="evenodd" transform="matrix(1.00238 0 0 1 -130.424 209.752)"/><path d="M319.431 75.9303C319.431 61.3733 331.231 49.5729 345.788 49.5729 360.346 49.5729 372.146 61.3733 372.146 75.9303 372.146 90.4869 360.346 102.288 345.788 102.288 331.231 102.288 319.431 90.4869 319.431 75.9303Z" fill="url(#fill5)" fill-rule="evenodd" transform="matrix(1.00238 0 0 1 -130.424 209.752)"/><path d="M335.429 173.855C345.093 173.821 356.541 177.652 364.521 185.643L404.106 225.273C412.425 233.167 415.512 240.863 415.435 257.266L415.435 257.267 415.246 260.945C413.406 279.089 398.109 293.248 379.505 293.248L181.884 293.248C193.098 293.199 199.444 290.786 213.312 278.919L306.534 185.841C314.513 177.85 325.764 173.887 335.429 173.855Z" fill="url(#fill6)" fill-rule="evenodd" transform="matrix(1.00238 0 0 1 -130.424 209.752)"/><path d="M335.429 173.855C345.093 173.821 356.541 177.652 364.521 185.643L404.106 225.273C412.425 233.167 415.512 240.863 415.435 257.266L415.435 257.267 415.246 260.945C413.406 279.089 398.109 293.248 379.505 293.248L181.884 293.248C193.098 293.199 199.444 290.786 213.312 278.919L306.534 185.841C314.513 177.85 325.764 173.887 335.429 173.855Z" fill="url(#fill7)" fill-rule="evenodd" transform="matrix(1.00238 0 0 1 -130.424 209.752)"/><path d="M335.429 173.855C345.093 173.821 356.541 177.652 364.521 185.643L404.106 225.273C412.425 233.167 415.512 240.863 415.435 257.266L415.435 257.267 415.246 260.945C413.406 279.089 398.109 293.248 379.505 293.248L181.884 293.248C193.098 293.199 199.444 290.786 213.312 278.919L306.534 185.841C314.513 177.85 325.764 173.887 335.429 173.855Z" fill="url(#fill8)" fill-rule="evenodd" transform="matrix(1.00238 0 0 1 -130.424 209.752)"/><path d="M178.083 20.2481 202.753 43.9513 178.615 68.0245 245.77 134.998 152.664 227.755C149.636 231.182 142.84 235.906 142.141 253.582 142.123 254.818 142.104 256.054 142.086 257.29L142.086 56.1486C142.086 36.3212 158.202 20.2481 178.083 20.2481Z" fill="url(#fill9)" fill-rule="evenodd" transform="matrix(1.00238 0 0 1 -130.424 209.752)"/><path d="M379.498 20.2481C399.345 20.2481 415.435 36.3226 415.435 56.1518L415.435 253.45 415.351 253.45C415.337 252.822 415.323 252.194 415.313 251.567 415.309 251.539 415.306 251.512 415.306 251.485 415.295 251.118 415.288 250.752 415.281 250.385L414.946 247.428 414.866 246.529C414.862 246.496 414.855 246.463 414.848 246.43L414.806 246.194 414.632 244.627 414.185 242.704C414.178 242.667 414.171 242.629 414.164 242.592L414.077 242.098 414 241.828 413.927 241.589 413.525 239.844 413.04 238.573 412.918 238.169 412.649 237.557 411.993 235.836 411.532 235.014 411.368 234.638 410.802 233.71 410.073 232.408 409.727 231.947 409.395 231.401 408.09 229.753 407.796 229.36 407.692 229.248 407.531 229.045 406.983 228.353C406.103 227.357 405.143 226.376 404.103 225.391L402.336 223.628 402.326 223.614 312.798 134.144 378.974 68.0287 355.588 44.6659Z" fill="url(#fill10)" fill-rule="evenodd" transform="matrix(1.00238 0 0 1 -130.424 209.752)"/></g></svg>