<svg xmlns:dc="http://purl.org/dc/elements/1.1/" xmlns:cc="http://creativecommons.org/ns#" xmlns:rdf="http://www.w3.org/1999/02/22-rdf-syntax-ns#" xmlns:svg="http://www.w3.org/2000/svg" xmlns="http://www.w3.org/2000/svg" xmlns:xlink="http://www.w3.org/1999/xlink" width="165.97365mm" height="175.86592mm" viewBox="0 0 165.97365 175.86592" version="1.1" id="svg8">
  <defs id="defs2">
    <linearGradient id="linearGradient1509">
      <stop style="stop-color:#db5317;stop-opacity:1" offset="0" id="stop1505"/>
      <stop style="stop-color:#c23807;stop-opacity:1" offset="1" id="stop1507"/>
    </linearGradient>
    <linearGradient id="linearGradient1502">
      <stop style="stop-color:#78400a;stop-opacity:1" offset="0" id="stop1498"/>
      <stop style="stop-color:#9a5605;stop-opacity:1" offset="1" id="stop1500"/>
    </linearGradient>
    <linearGradient id="linearGradient1496">
      <stop style="stop-color:#f0d69f;stop-opacity:1" offset="0" id="stop1492"/>
      <stop style="stop-color:#c39360;stop-opacity:1" offset="1" id="stop1494"/>
    </linearGradient>
    <linearGradient id="linearGradient1315">
      <stop style="stop-color:#3ac8f3;stop-opacity:1" offset="0" id="stop1311"/>
      <stop style="stop-color:#1b9de3;stop-opacity:1" offset="1" id="stop1313"/>
    </linearGradient>
    <linearGradient id="linearGradient1291">
      <stop style="stop-color:#4fb412;stop-opacity:1" offset="0" id="stop1287"/>
      <stop style="stop-color:#188313;stop-opacity:1" offset="1" id="stop1289"/>
    </linearGradient>
    <linearGradient id="linearGradient1279">
      <stop style="stop-color:#fddd01;stop-opacity:1" offset="0" id="stop1275"/>
      <stop style="stop-color:#f7a810;stop-opacity:1" offset="1" id="stop1277"/>
    </linearGradient>
    <linearGradient id="linearGradient1265">
      <stop style="stop-color:#212121;stop-opacity:1" offset="0" id="stop1261"/>
      <stop style="stop-color:#4b4b4b;stop-opacity:1" offset="1" id="stop1263"/>
    </linearGradient>
    <linearGradient id="linearGradient1255">
      <stop style="stop-color:#ececec;stop-opacity:1" offset="0" id="stop1251"/>
      <stop style="stop-color:#9396a0;stop-opacity:1" offset="1" id="stop1253"/>
    </linearGradient>
    <linearGradient id="linearGradient1247">
      <stop style="stop-color:#ffffff;stop-opacity:1" offset="0" id="stop1243"/>
      <stop style="stop-color:#f2f2f2;stop-opacity:1" offset="1" id="stop1245"/>
    </linearGradient>
    <filter style="color-interpolation-filters:sRGB" id="filter1169" x="-0.066872343" width="1.1337447" y="-0.066872343" height="1.1337447">
      <feGaussianBlur stdDeviation="0.84129284" id="feGaussianBlur1171"/>
    </filter>
    <filter style="color-interpolation-filters:sRGB" id="filter1169-4" x="-0.066872343" width="1.1337447" y="-0.066872343" height="1.1337447">
      <feGaussianBlur stdDeviation="0.84129284" id="feGaussianBlur1171-3"/>
    </filter>
    <filter style="color-interpolation-filters:sRGB" id="filter1169-7" x="-0.066872343" width="1.1337447" y="-0.066872343" height="1.1337447">
      <feGaussianBlur stdDeviation="0.84129284" id="feGaussianBlur1171-5"/>
    </filter>
    <linearGradient xlink:href="#linearGradient1247" id="linearGradient1249" x1="1053.5891" y1="481.84277" x2="1154.6044" y2="582.85803" gradientUnits="userSpaceOnUse"/>
    <linearGradient xlink:href="#linearGradient1255" id="linearGradient1257" x1="279.83121" y1="168.91434" x2="303.61819" y2="154.48178" gradientUnits="userSpaceOnUse"/>
    <linearGradient xlink:href="#linearGradient1265" id="linearGradient1259" x1="1089.9546" y1="627.30475" x2="1089.9546" y2="935.40125" gradientUnits="userSpaceOnUse"/>
    <linearGradient xlink:href="#linearGradient1509" id="linearGradient1281" x1="172.12158" y1="151.27455" x2="200.18488" y2="179.33784" gradientUnits="userSpaceOnUse"/>
    <linearGradient xlink:href="#linearGradient1291" id="linearGradient1293" x1="193.7704" y1="110.11504" x2="216.75558" y2="138.17834" gradientUnits="userSpaceOnUse"/>
    <linearGradient xlink:href="#linearGradient1279" id="linearGradient1305" x1="235.19719" y1="102.89877" x2="260.5878" y2="125.61668" gradientUnits="userSpaceOnUse"/>
    <linearGradient xlink:href="#linearGradient1315" id="linearGradient1317" x1="198.04672" y1="93.277061" x2="309.49811" y2="236.8008" gradientUnits="userSpaceOnUse" gradientTransform="matrix(3.7795276,0,0,3.7795276,-601.29033,-296.47006)"/>
    <linearGradient xlink:href="#linearGradient1315" id="linearGradient1421" gradientUnits="userSpaceOnUse" x1="198.04672" y1="93.277061" x2="309.49811" y2="236.8008" gradientTransform="matrix(3.7795276,0,0,3.7795276,-1002.0713,0)"/>
    <filter style="color-interpolation-filters:sRGB" id="filter1452" x="-0.18356825" width="1.3671365" y="-0.075329497" height="1.150659">
      <feGaussianBlur stdDeviation="3.1590077" id="feGaussianBlur1454"/>
    </filter>
    <linearGradient xlink:href="#linearGradient1502" id="linearGradient1474" gradientUnits="userSpaceOnUse" x1="1179.8582" y1="633.36566" x2="1089.9546" y2="935.40125"/>
    <linearGradient xlink:href="#linearGradient1496" id="linearGradient1476" gradientUnits="userSpaceOnUse" x1="1053.5891" y1="481.84277" x2="1154.6044" y2="582.85803"/>
  </defs>
  <metadata id="metadata5">
    <rdf:RDF>
      <cc:Work rdf:about="">
        <dc:format>image/svg+xml</dc:format>
        <dc:type rdf:resource="http://purl.org/dc/dcmitype/StillImage"/>
        <dc:title/>
      </cc:Work>
    </rdf:RDF>
  </metadata>
  <g id="layer1" transform="translate(-159.0914,-78.441037)">
    <path id="path1219" style="fill:url(#linearGradient1317);fill-opacity:1;stroke:none;stroke-width:0.999999px;stroke-linecap:butt;stroke-linejoin:miter;stroke-opacity:1" d="M 371.125 0.009765625 C 310.53187 0.45132285 241.55744 15.667119 183.09375 53.042969 C 105.14216 102.87744 45.882386 192.10557 19.28125 263.99609 C -7.3198864 335.88661 -1.2601241 390.43565 7.2421875 430.8418 C 15.744499 471.24795 26.687683 497.51113 39.0625 513 C 51.437317 528.48887 65.243379 533.20163 79.132812 533.11719 C 93.022246 533.03275 106.99495 528.15028 123.57812 515.52344 C 140.1613 502.89659 159.35355 482.52635 175.26367 466.19531 C 191.17379 449.86428 203.80118 437.5749 214.32422 431.42969 C 224.84726 425.28448 233.26451 425.28423 242.10352 428.0625 C 250.94252 430.84077 260.20179 436.3962 266.76758 443.13086 C 273.33336 449.86552 277.20657 457.77827 278.38477 466.70117 C 279.56296 475.62407 278.04749 485.55608 271.81836 494.39453 C 265.58922 503.23298 254.64676 510.97814 245.38672 525.28906 C 236.12668 539.59999 228.54895 560.47578 232.50586 580.00586 C 236.46277 599.53594 251.95254 617.71868 268.95703 627.98828 C 285.96152 638.25788 304.47966 640.61492 356.33398 619.73828 C 408.18831 598.86165 493.37734 554.75213 547.75781 490.60742 C 602.13829 426.46271 625.7069 342.28508 627.22266 270.90039 C 628.73841 199.5157 608.20013 140.92755 575.70703 94.964844 C 543.21393 49.002134 498.76749 15.667948 428.22461 4.21875 C 410.58889 1.3564504 391.32271 -0.13742012 371.125 0.009765625 z M 342.90625 315.36914 A 42.594088 42.594088 0 0 1 385.5 357.96289 A 42.594088 42.594088 0 0 1 342.90625 400.55859 A 42.594088 42.594088 0 0 1 300.3125 357.96289 A 42.594088 42.594088 0 0 1 342.90625 315.36914 z " transform="matrix(0.26458333,0,0,0.26458333,159.0914,78.441037)"/>
    <g id="g1461" transform="translate(2.138154)">
      <path id="path1219-4" style="fill:#808080;fill-opacity:1;stroke:none;stroke-width:0.264583px;stroke-linecap:butt;stroke-linejoin:miter;stroke-opacity:1;filter:url(#filter1452)" d="m 273.18694,128.03818 c -2.37244,0 -4.28191,1.91001 -4.28191,4.28242 0,0.34907 0.0454,0.68635 0.12351,1.01079 3.39492,7.50647 7.92401,14.92375 11.42824,21.25659 h 18.34978 l 10.31927,-19.27583 c 0.56129,-0.97587 1.06508,-2.05893 1.08056,-2.99155 0,-2.37241 -1.90999,-4.28242 -4.28243,-4.28242 z m 7.26984,26.55032 v 9.06094 c -0.003,0.0713 -0.004,0.14269 -10e-4,0.21446 l 10e-4,0.0269 v 2.41484 h 0.0925 l 2.38642,62.37862 c 4.69604,-3.01908 9.38317,-6.41238 13.77642,-10.16785 l 1.99057,-52.21077 h 0.10387 v -11.71711 z"/>
      <g id="g1322">
        <path id="rect1046" style="fill:url(#linearGradient1474);fill-opacity:1;stroke:none;stroke-width:1.57651;stroke-linecap:round;paint-order:markers fill stroke" d="m 1106.7937,591.31055 c -12.4969,0 -47.3957,12.50642 -46.8022,28.01757 l 12.1218,316.84296 c 0.5934,15.51116 10.0617,24.98908 22.5586,24.98908 12.4968,0 21.9653,-9.47784 22.5566,-24.98908 l 12.0772,-316.79832 c 0.5913,-15.51123 -10.0152,-28.06221 -22.512,-28.06221 z" transform="scale(0.26458333)"/>
        <rect style="fill:url(#linearGradient1257);fill-opacity:1;stroke:none;stroke-width:0.422483;stroke-linecap:round;paint-order:markers fill stroke" id="rect1049" width="18.349737" height="11.717261" x="280.45694" y="154.58809" ry="0"/>
        <path id="rect1054" style="fill:url(#linearGradient1476);fill-opacity:1;stroke:none;stroke-width:2.11343;stroke-linecap:round;paint-order:markers fill stroke" d="m 1032.5176,483.92383 c -8.9667,0 -16.1836,7.2189 -16.1836,16.18555 0,1.31932 0.1717,2.5941 0.4668,3.82031 12.8312,28.37087 29.949,56.40471 43.1933,80.33984 h 69.3536 l 39.0036,-72.8548 c 2.1214,-3.68834 4.0238,-7.78051 4.0823,-11.30535 0,-8.96665 -7.2189,-16.18555 -16.1856,-16.18555 z" transform="scale(0.26458333)"/>
      </g>
    </g>
    <g id="g1472" transform="translate(-1.1719144)">
      <g id="g1285">
        <circle style="fill:#808080;fill-opacity:1;stroke:none;stroke-width:0.64991;stroke-linecap:round;paint-order:markers fill stroke;filter:url(#filter1169)" id="path1059-2-6" cx="185.30284" cy="166.6875" r="15.096695"/>
        <circle style="fill:url(#linearGradient1281);fill-opacity:1;stroke:none;stroke-width:0.64991;stroke-linecap:round;paint-order:markers fill stroke" id="path1059-2" cx="185.24278" cy="165.63556" r="15.096695"/>
      </g>
      <g id="g1297">
        <circle style="fill:#808080;fill-opacity:1;stroke:none;stroke-width:0.64991;stroke-linecap:round;paint-order:markers fill stroke;filter:url(#filter1169-4)" id="path1059-2-6-7" cx="204.57961" cy="128.6064" r="15.096695"/>
        <circle style="fill:url(#linearGradient1293);fill-opacity:1;stroke:none;stroke-width:0.64991;stroke-linecap:round;paint-order:markers fill stroke" id="path1059-2-67" cx="204.51955" cy="127.55446" r="15.096695"/>
      </g>
      <g id="g1309">
        <circle style="fill:#666666;fill-opacity:1;stroke:none;stroke-width:0.64991;stroke-linecap:round;paint-order:markers fill stroke;filter:url(#filter1169-7)" id="path1059-2-6-8" cx="246.157" cy="112.92038" r="15.096695"/>
        <circle style="fill:url(#linearGradient1305);fill-opacity:1.0;stroke:none;stroke-width:0.64991;stroke-linecap:round;paint-order:markers fill stroke" id="path1059-2-4" cx="246.09694" cy="111.86845" r="15.096695"/>
      </g>
    </g>
  </g>
</svg>