<?xml version="1.0" encoding="utf-8"?>
<!-- Generator: Adobe Illustrator 23.0.5, SVG Export Plug-In . SVG Version: 6.00 Build 0)  -->
<svg version="1.1" id="Camada_1" xmlns="http://www.w3.org/2000/svg" xmlns:xlink="http://www.w3.org/1999/xlink" x="0px" y="0px"
	 viewBox="0 0 651 612.4" style="enable-background:new 0 0 651 612.4;" xml:space="preserve">
<style type="text/css">
	.st0{fill:#B92E2D;}
	.st1{fill:#FFFFFF;}
	.st2{fill:url(#SVGID_1_);}
	.st3{fill:url(#SVGID_2_);}
	.st4{fill:url(#SVGID_3_);}
	.st5{fill:url(#SVGID_4_);}
	.st6{fill:url(#SVGID_5_);}
	.st7{fill:url(#SVGID_6_);}
</style>
<rect x="-1346" y="-21.3" class="st0" width="653" height="653"/>
<path class="st1" d="M-1019.5,332.2c-14.9,0-27-12.1-27-27s12.1-27,27-27s27,12.1,27,27S-1004.6,332.2-1019.5,332.2z M-936.6,321.8
	l24.1,21.6l-18.6,33.2l-31-9.4c-3.3,3-6.8,5.8-10.5,8.3l1.8,32.3l-36.6,10.3l-15.3-28.5c-4.5-0.2-9-0.7-13.3-1.6l-21.6,24.1
	l-33.2-18.6l9.4-31c-3-3.3-5.8-6.8-8.3-10.5l-32.4,1.8l-10.3-36.6l28.5-15.3c0.2-4.5,0.7-9,1.6-13.3l-24.1-21.6l18.6-33.2l31,9.4
	c3.3-3,6.8-5.8,10.5-8.3l-1.8-32.3l36.6-10.3l15.3,28.5c4.5,0.2,9,0.7,13.3,1.6l21.6-24.1l33.2,18.6l-9.4,31c3,3.3,5.8,6.8,8.3,10.5
	l32.4-1.8l10.3,36.6l-28.5,15.3C-935.3,313-935.8,317.5-936.6,321.8z M-1019.5,359.2c29.8,0,54-24.2,54-54c0-29.8-24.2-54-54-54
	s-54,24.2-54,54C-1073.5,335-1049.3,359.2-1019.5,359.2z"/>
<g>
	<path class="st1" d="M-1311.7,578.6c1.4,1.2,3.2,2.2,5.5,2.9c2.3,0.8,4.4,1.1,6.5,1.1c6.2,0,9.4-2.2,9.4-6.7c0-1.2-0.3-2.4-1-3.4
		c-0.7-1-1.6-1.9-2.8-2.6c-1.2-0.8-3.4-1.9-6.6-3.5c-4.5-2.2-7.4-4.3-8.8-6.2c-1.4-1.9-2.1-4.1-2.1-6.5c0-3.7,1.5-6.6,4.5-8.8
		c3-2.2,6.7-3.2,11.2-3.2c4.4,0,7.7,0.5,9.7,1.6v6.3c-2.7-1.9-6.1-2.8-10.2-2.8c-2.7,0-4.9,0.6-6.6,1.7c-1.7,1.1-2.6,2.7-2.6,4.8
		c0,1.8,0.6,3.3,1.8,4.4c1.2,1.1,3.8,2.7,7.7,4.6c4.4,2.1,7.4,4.2,9.2,6.3c1.7,2.1,2.6,4.4,2.6,7c0,3.9-1.4,6.9-4.3,9
		c-2.8,2.1-6.8,3.1-11.8,3.1c-1.8,0-3.8-0.2-6.2-0.7c-2.3-0.5-4.1-1.1-5.1-1.8V578.6z"/>
	<path class="st1" d="M-1250.5,572.5h-22.2c0.1,3.4,1,6,2.8,7.9c1.8,1.8,4.2,2.8,7.4,2.8c3.6,0,6.8-1.1,9.8-3.4v5
		c-2.8,2-6.5,3-11.1,3c-4.6,0-8.2-1.5-10.8-4.4c-2.6-2.9-3.9-7-3.9-12.1c0-4.9,1.4-8.9,4.2-12c2.8-3.2,6.3-4.7,10.5-4.7
		c4.2,0,7.4,1.3,9.7,4c2.3,2.7,3.5,6.4,3.5,11.2V572.5z M-1256.2,568c0-2.9-0.7-5.1-2-6.7c-1.3-1.6-3.2-2.4-5.7-2.4
		c-2.2,0-4.2,0.8-5.8,2.5s-2.7,3.8-3.1,6.5H-1256.2z"/>
	<path class="st1" d="M-1227.8,586.6c-1.2,0.7-2.9,1-5,1c-5.7,0-8.5-3.1-8.5-9.5v-18.4h-5.5v-4.7h5.5v-7.6l5.6-1.8v9.4h7.9v4.7h-7.9
		v17.3c0,2.1,0.4,3.6,1.1,4.5c0.7,0.9,1.9,1.4,3.5,1.4c1.3,0,2.4-0.4,3.3-1.1V586.6z"/>
	<path class="st1" d="M-1205.9,586.6c-1.2,0.7-2.9,1-5,1c-5.7,0-8.5-3.1-8.5-9.5v-18.4h-5.5v-4.7h5.5v-7.6l5.6-1.8v9.4h7.9v4.7h-7.9
		v17.3c0,2.1,0.4,3.6,1.1,4.5c0.7,0.9,1.9,1.4,3.5,1.4c1.3,0,2.4-0.4,3.3-1.1V586.6z"/>
	<path class="st1" d="M-1199.9,544c0-1,0.3-1.8,1-2.5c0.7-0.7,1.5-1,2.5-1c1,0,1.9,0.3,2.6,1c0.7,0.7,1,1.5,1,2.5c0,1-0.3,1.8-1,2.5
		c-0.7,0.7-1.6,1-2.6,1c-1,0-1.9-0.3-2.5-1C-1199.6,545.8-1199.9,545-1199.9,544z M-1199.2,586.9v-31.8h5.6v31.8H-1199.2z"/>
	<path class="st1" d="M-1156.7,586.9h-5.6v-18.1c0-6.5-2.4-9.8-7.2-9.8c-2.5,0-4.5,0.9-6.1,2.8c-1.6,1.8-2.4,4.2-2.4,7v18.1h-5.6
		v-31.8h5.6v5.3h0.1c2.4-4,5.9-6,10.4-6c3.5,0,6.1,1.1,8,3.3c1.8,2.2,2.7,5.5,2.7,9.8V586.9z"/>
	<path class="st1" d="M-1119.7,584.3c0,11.8-5.7,17.6-17.1,17.6c-3.9,0-7.4-0.7-10.3-2.2v-5.4c3.5,2,6.9,3,10.2,3
		c7.7,0,11.6-4.1,11.6-12.2v-3.4h-0.1c-2.4,4-6,6-10.8,6c-4,0-7.2-1.4-9.6-4.3c-2.4-2.9-3.6-6.6-3.6-11.3c0-5.4,1.3-9.7,4-12.9
		c2.6-3.2,6.2-4.8,10.6-4.8c4.2,0,7.4,1.7,9.4,5.1h0.1v-4.3h5.6V584.3z M-1125.4,568c0-2.5-0.8-4.6-2.5-6.3
		c-1.7-1.8-3.7-2.6-6.1-2.6c-3.1,0-5.4,1.1-7.2,3.4c-1.7,2.3-2.6,5.3-2.6,9.3c0,3.4,0.8,6.1,2.5,8.2c1.6,2.1,3.8,3.1,6.5,3.1
		c2.7,0,5-1,6.7-3c1.7-2,2.6-4.5,2.6-7.6V568z"/>
	<path class="st1" d="M-1111.5,580.1c2.8,2,5.9,3.1,9.2,3.1c4.4,0,6.6-1.4,6.6-4.3c0-1.2-0.5-2.2-1.4-3c-1-0.8-2.9-1.7-5.8-2.8
		c-3.5-1.4-5.8-2.8-6.9-4.2c-1.1-1.4-1.6-3.1-1.6-5c0-2.8,1.2-5.1,3.6-6.8c2.4-1.7,5.3-2.5,8.8-2.5c2.7,0,5.2,0.5,7.5,1.4v5.4
		c-2.4-1.5-5.1-2.3-8.1-2.3c-1.8,0-3.3,0.4-4.4,1.2c-1.1,0.8-1.7,1.8-1.7,3.1c0,1.3,0.4,2.3,1.2,3c0.8,0.7,2.6,1.6,5.4,2.7
		c3.5,1.3,5.9,2.7,7.2,4.1c1.2,1.4,1.9,3.2,1.9,5.3c0,2.9-1.2,5.2-3.6,6.9c-2.4,1.7-5.5,2.5-9.3,2.5c-3.3,0-6.2-0.6-8.6-1.9V580.1z"
		/>
</g>
<linearGradient id="SVGID_1_" gradientUnits="userSpaceOnUse" x1="-345.5" y1="612.4344" x2="-345.5" y2="-9.094947e-13">
	<stop  offset="0" style="stop-color:#69757C"/>
	<stop  offset="0.5" style="stop-color:#7E8890"/>
	<stop  offset="1" style="stop-color:#878F95"/>
	<stop  offset="1" style="stop-color:#646464"/>
</linearGradient>
<path class="st2" d="M-20,306.2c0,18.7-1.6,37-4.6,54.8c-1.1,6.6-6.8,11.5-13.5,11.6c-38.3,0.6-75.3,20.7-95.9,56.2
	c-20.5,35.5-19.4,77.5-1,110.9c3.2,5.9,1.8,13.2-3.3,17.5c-27.6,22.8-59.1,41.2-93.3,54c-6.3,2.3-13.4-0.1-16.9-5.9
	c-19.7-32.7-55.5-54.7-96.5-54.7c-41.1,0-77,22-96.7,54.9c-3.4,5.8-10.5,8.2-16.8,5.9c-34.5-12.8-66.3-31.3-94.2-54.3
	c-5.2-4.3-6.6-11.6-3.3-17.5c18.5-33.4,19.5-75.4-1-110.9c-20.5-35.6-57.6-55.7-95.9-56.2c-6.7-0.1-12.4-5-13.5-11.6
	c-3-17.8-4.6-36.1-4.6-54.8c0-18.7,1.6-37,4.6-54.8c1.1-6.6,6.8-11.5,13.5-11.6c38.3-0.6,75.3-20.7,95.9-56.2
	c20.5-35.5,19.4-77.5,1-110.9c-3.2-5.9-1.8-13.2,3.3-17.5c27.6-22.8,59.1-41.2,93.3-54c6.3-2.3,13.4,0.1,16.9,5.9
	c19.7,32.7,55.5,54.7,96.5,54.7c41.1,0,77-22,96.7-54.9c3.4-5.8,10.5-8.2,16.8-5.9c34.5,12.8,66.3,31.3,94.2,54.3
	c5.2,4.3,6.6,11.6,3.3,17.5c-18.5,33.4-19.5,75.4,1,110.9c20.5,35.6,57.6,55.7,95.9,56.2c6.7,0.1,12.4,5,13.5,11.6
	C-21.6,269.2-20,287.5-20,306.2z"/>
<linearGradient id="SVGID_2_" gradientUnits="userSpaceOnUse" x1="-345.5" y1="470.7172" x2="-345.5" y2="141.7172">
	<stop  offset="0" style="stop-color:#1C3A6D"/>
	<stop  offset="1" style="stop-color:#154687"/>
</linearGradient>
<circle class="st3" cx="-345.5" cy="306.2" r="164.5"/>
<linearGradient id="SVGID_3_" gradientUnits="userSpaceOnUse" x1="-345.5" y1="418.7172" x2="-345.5" y2="193.7172">
	<stop  offset="0" style="stop-color:#D4D3D8"/>
	<stop  offset="1" style="stop-color:#FFFFFF"/>
</linearGradient>
<circle class="st4" cx="-345.5" cy="306.2" r="112.5"/>
<linearGradient id="SVGID_4_" gradientUnits="userSpaceOnUse" x1="325.5" y1="612.4344" x2="325.5" y2="-9.094947e-13">
	<stop  offset="0" style="stop-color:#69757C"/>
	<stop  offset="0.5" style="stop-color:#7E8890"/>
	<stop  offset="1" style="stop-color:#878F95"/>
	<stop  offset="1" style="stop-color:#646464"/>
</linearGradient>
<path class="st5" d="M651,306.2c0,18.7-1.6,37-4.6,54.8c-1.1,6.6-6.8,11.5-13.5,11.6c-38.3,0.6-75.3,20.7-95.9,56.2
	c-20.5,35.5-19.4,77.5-1,110.9c3.2,5.9,1.8,13.2-3.3,17.5c-27.6,22.8-59.1,41.2-93.3,54c-6.3,2.3-13.4-0.1-16.9-5.9
	c-19.7-32.7-55.5-54.7-96.5-54.7c-41.1,0-77,22-96.7,54.9c-3.4,5.8-10.5,8.2-16.8,5.9c-34.5-12.8-66.3-31.3-94.2-54.3
	c-5.2-4.3-6.6-11.6-3.3-17.5c18.5-33.4,19.5-75.4-1-110.9c-20.5-35.6-57.6-55.7-95.9-56.2c-6.7-0.1-12.4-5-13.5-11.6
	c-3-17.8-4.6-36.1-4.6-54.8c0-18.7,1.6-37,4.6-54.8c1.1-6.6,6.8-11.5,13.5-11.6c38.3-0.6,75.3-20.7,95.9-56.2
	c20.5-35.5,19.4-77.5,1-110.9c-3.2-5.9-1.8-13.2,3.3-17.5c27.6-22.8,59.1-41.2,93.3-54c6.3-2.3,13.4,0.1,16.9,5.9
	C248.2,39.8,284,61.7,325,61.7c41.1,0,77-22,96.7-54.9c3.4-5.8,10.5-8.2,16.8-5.9c34.5,12.8,66.3,31.3,94.2,54.3
	c5.2,4.3,6.6,11.6,3.3,17.5c-18.5,33.4-19.5,75.4,1,110.9c20.5,35.6,57.6,55.7,95.9,56.2c6.7,0.1,12.4,5,13.5,11.6
	C649.4,269.2,651,287.5,651,306.2z"/>
<linearGradient id="SVGID_5_" gradientUnits="userSpaceOnUse" x1="325.5" y1="470.7172" x2="325.5" y2="141.7172">
	<stop  offset="7.572600e-08" style="stop-color:#FFFFFF"/>
	<stop  offset="1" style="stop-color:#C6CDD0"/>
</linearGradient>
<circle class="st6" cx="325.5" cy="306.2" r="164.5"/>
<linearGradient id="SVGID_6_" gradientUnits="userSpaceOnUse" x1="245.9505" y1="226.6677" x2="405.0495" y2="385.7667">
	<stop  offset="1.514520e-07" style="stop-color:#0965B3"/>
	<stop  offset="1" style="stop-color:#0F4D90"/>
</linearGradient>
<circle class="st7" cx="325.5" cy="306.2" r="112.5"/>
</svg>
